<?xml version="1.0" encoding="utf-8"?>
<!-- Generator: Adobe Illustrator 24.1.2, SVG Export Plug-In . SVG Version: 6.00 Build 0)  -->
<svg version="1.1" id="Capa_1" xmlns="http://www.w3.org/2000/svg" xmlns:xlink="http://www.w3.org/1999/xlink" x="0px" y="0px"
	 viewBox="0 0 512 512" style="enable-background:new 0 0 512 512;" xml:space="preserve">
<style type="text/css">
	.st0{fill:#FFFFFF;}
</style>
<g>
	<path class="st0" d="M256,60C147.8,60,60,147.8,60,256s87.8,196,196,196s196-87.8,196-196C451.9,147.8,364.2,60.1,256,60z
		 M329.7,422.4c-13.7-40.7-57.7-62.6-98.4-48.9c-23.1,7.7-41.1,25.8-48.9,48.9c-9.4-4.2-18.5-9.1-27-14.8
		c8.8-13.9,13.4-30,13.4-46.4c-0.1-48.4-39.3-87.6-87.7-87.7h-6.2c-0.6-5.7-0.9-11.6-0.9-17.4c0-8,0.6-16.1,1.6-24h360.7
		c1.1,8,1.6,16,1.6,24c0,5.9-0.3,11.7-0.9,17.5h-6.2c-48.4,0.1-87.6,39.3-87.7,87.6c0,16.4,4.7,32.5,13.4,46.4
		C348.1,413.2,339.1,418.2,329.7,422.4z M256,74c85.8,0.1,159.9,60.1,178,144H78C96.1,134.1,170.2,74.1,256,74z M76.8,287.4h4.3
		c40.7,0,73.6,33,73.7,73.7c0,13.5-3.7,26.7-10.8,38.2C108.5,371.6,84.6,331.7,76.8,287.4z M195.4,427.6
		c10.8-33.5,46.7-51.9,80.2-41.1c19.5,6.3,34.8,21.6,41.1,41.1C277.4,441.5,234.6,441.5,195.4,427.6z M368,399.3
		c-7-11.5-10.8-24.7-10.8-38.2c0-40.7,33-73.6,73.7-73.7h4.3C427.4,331.7,403.5,371.6,368,399.3z"/>
	<path class="st0" d="M256,0C114.6,0,0,114.6,0,256s114.6,256,256,256s256-114.6,256-256C511.8,114.7,397.3,0.2,256,0z M256,498
		C122.3,498,14,389.7,14,256S122.3,14,256,14s242,108.3,242,242C497.8,389.6,389.6,497.8,256,498z"/>
	<path class="st0" d="M282,261.5h-52c-18.2,0-33,14.8-33,33s14.8,33,33,33l0,0h52c18.2,0,33-14.8,33-33S300.2,261.5,282,261.5z
		 M282,313.5h-52c-10.5,0-19-8.5-19-19s8.5-19,19-19h52c10.5,0,19,8.5,19,19S292.5,313.5,282,313.5z"/>
</g>
</svg>
