<?xml version="1.0" encoding="utf-8"?>
<!-- Generator: Adobe Illustrator 24.1.2, SVG Export Plug-In . SVG Version: 6.00 Build 0)  -->
<svg version="1.1" id="Capa_1" xmlns="http://www.w3.org/2000/svg" xmlns:xlink="http://www.w3.org/1999/xlink" x="0px" y="0px"
	 viewBox="0 0 209.4 203" style="enable-background:new 0 0 209.4 203;" xml:space="preserve">
<style type="text/css">
	.st0{fill:#FFFFFF;}
</style>
<g>
	<path class="st0" d="M55.7,142.8c-2.1,0-4.1,0.5-6,1.5c-9.5-12.2-14.7-27.3-14.7-42.8c0-38.4,31.2-69.6,69.6-69.6
		c4.7,0,9.3,0.5,13.9,1.4c1.6,0.3,3.2-0.7,3.5-2.3c0.3-1.6-0.7-3.2-2.3-3.5c-4.9-1-10-1.5-15-1.5c-20.2,0-39.1,7.9-53.4,22.1
		s-22.1,33.2-22.1,53.4c0,17,5.8,33.5,16.3,46.8c-1.4,2-2.1,4.4-2.1,6.9c0,3.3,1.3,6.4,3.6,8.8c2.3,2.3,5.5,3.6,8.8,3.6
		c3.3,0,6.4-1.3,8.8-3.6c2.3-2.3,3.6-5.5,3.6-8.8c0-3.3-1.3-6.4-3.6-8.8C62.1,144.1,59,142.8,55.7,142.8z M60.3,159.7
		c-1.2,1.2-2.9,1.9-4.6,1.9c-1.7,0-3.4-0.7-4.6-1.9c-1.2-1.2-1.9-2.9-1.9-4.6c0-1.7,0.7-3.4,1.9-4.6c1.2-1.2,2.9-1.9,4.6-1.9
		c1.7,0,3.4,0.7,4.6,1.9c1.2,1.2,1.9,2.9,1.9,4.6C62.2,156.9,61.5,158.5,60.3,159.7z"/>
	<path class="st0" d="M164,54.7c3.2-4.8,2.7-11.4-1.6-15.6c-2.3-2.3-5.5-3.6-8.8-3.6c-3.3,0-6.4,1.3-8.8,3.6
		c-2.3,2.3-3.6,5.5-3.6,8.8c0,3.3,1.3,6.4,3.6,8.8c2.3,2.3,5.5,3.6,8.8,3.6c2.1,0,4.1-0.5,6-1.5c9.5,12.2,14.7,27.3,14.7,42.8
		c0,38.4-31.2,69.6-69.6,69.6c-4.6,0-9.2-0.5-13.7-1.4c-1.6-0.3-3.2,0.7-3.5,2.3c-0.3,1.6,0.7,3.2,2.3,3.5c4.9,1,9.9,1.5,14.9,1.5
		c20.2,0,39.1-7.9,53.4-22.1c14.3-14.3,22.1-33.2,22.1-53.4C180.2,84.5,174.4,67.9,164,54.7z M149.1,52.4c-1.2-1.2-1.9-2.9-1.9-4.6
		c0-1.7,0.7-3.4,1.9-4.6c1.2-1.2,2.9-1.9,4.6-1.9c1.7,0,3.4,0.7,4.6,1.9c2.5,2.5,2.5,6.6,0,9.2c-1.2,1.2-2.9,1.9-4.6,1.9
		C151.9,54.3,150.3,53.6,149.1,52.4z"/>
	<path class="st0" d="M92.5,152.2c0,1.6,1.3,3,3,3h18.4c1.6,0,3-1.3,3-3v-5.7c3.9-1,7.6-2.6,11.1-4.6l4,4c0.6,0.6,1.3,0.9,2.1,0.9
		c0.8,0,1.5-0.3,2.1-0.9l13-13c1.2-1.2,1.2-3,0-4.2l-4-4c2-3.5,3.5-7.2,4.6-11.1h5.7c1.6,0,3-1.3,3-3V92.2c0-1.6-1.3-3-3-3h-5.7
		c-1-3.9-2.6-7.6-4.6-11.1l4-4c0.6-0.6,0.9-1.3,0.9-2.1c0-0.8-0.3-1.5-0.9-2.1l-13-13c-1.2-1.2-3-1.2-4.2,0l-4,4
		c-3.5-2-7.2-3.5-11.1-4.6v-5.7c0-1.6-1.3-3-3-3H95.5c-1.6,0-3,1.3-3,3v5.7c-3.9,1-7.6,2.6-11.1,4.6l-4-4c-1.2-1.2-3-1.2-4.2,0
		l-13,13c-0.6,0.6-0.9,1.3-0.9,2.1c0,0.8,0.3,1.5,0.9,2.1l4,4c-2,3.5-3.5,7.2-4.6,11.1h-5.7c-1.6,0-3,1.3-3,2.9l0,18.4
		c0,0.8,0.3,1.5,0.9,2.1c0.6,0.6,1.3,0.9,2.1,0.9h5.7c1,3.9,2.6,7.6,4.6,11.1l-4,4c-1.2,1.2-1.2,3,0,4.2l13,13
		c0.6,0.6,1.3,0.9,2.1,0.9h0c0.8,0,1.5-0.3,2.1-0.9l4-4c3.5,2,7.2,3.5,11.1,4.6V152.2z M82.6,135.7c-1.2-0.8-2.7-0.6-3.7,0.4
		l-3.6,3.6l-8.9-8.9l3.6-3.6c1-1,1.1-2.5,0.4-3.7c-2.7-4.1-4.6-8.7-5.6-13.5c-0.3-1.4-1.5-2.3-2.9-2.3h-5.1l0-12.5H62
		c1.4,0,2.6-1,2.9-2.3c1-4.8,2.9-9.3,5.6-13.5c0.8-1.2,0.6-2.7-0.4-3.7l-3.6-3.6l8.9-8.9l3.6,3.6c1,1,2.5,1.1,3.7,0.4
		c4.1-2.7,8.7-4.6,13.5-5.6c1.4-0.3,2.3-1.5,2.3-2.9v-5H111v5c0,1.4,1,2.6,2.3,2.9c4.8,1,9.3,2.9,13.5,5.6c1.2,0.8,2.7,0.6,3.7-0.4
		l3.6-3.6l8.9,8.9l-3.6,3.6c-1,1-1.1,2.5-0.4,3.7c2.7,4.1,4.6,8.7,5.6,13.5c0.3,1.4,1.5,2.3,2.9,2.3h5.1v12.5h-5.1
		c-1.4,0-2.6,1-2.9,2.3c-1,4.8-2.9,9.3-5.6,13.5c-0.8,1.2-0.6,2.7,0.4,3.7l3.6,3.6l-8.9,8.9l-3.6-3.6c-1-1-2.5-1.1-3.7-0.4
		c-4.1,2.7-8.7,4.6-13.5,5.6c-1.4,0.3-2.3,1.5-2.3,2.9v5.1H98.4v-5.1c0-1.4-1-2.6-2.3-2.9C91.3,140.3,86.7,138.4,82.6,135.7z"/>
	<path class="st0" d="M129.1,101.5c0-13.4-10.9-24.4-24.4-24.4S80.3,88,80.3,101.5s10.9,24.4,24.4,24.4S129.1,114.9,129.1,101.5z
		 M86.2,101.5c0-10.2,8.3-18.5,18.5-18.5s18.5,8.3,18.5,18.5s-8.3,18.5-18.5,18.5S86.2,111.7,86.2,101.5z"/>
	<path class="st0" d="M131.9,37.1c0.8,0,1.5-0.3,2.1-0.9c0.5-0.6,0.9-1.3,0.9-2.1c0-0.8-0.3-1.5-0.9-2.1c-0.5-0.5-1.3-0.9-2.1-0.9
		c-0.8,0-1.5,0.3-2.1,0.9c-0.5,0.6-0.9,1.3-0.9,2.1c0,0.8,0.3,1.5,0.9,2.1C130.3,36.8,131.1,37.1,131.9,37.1z"/>
	<path class="st0" d="M77.6,165.9c-0.8,0-1.5,0.3-2.1,0.9c-0.5,0.5-0.9,1.3-0.9,2.1c0,0.8,0.3,1.5,0.9,2.1c0.5,0.5,1.3,0.9,2.1,0.9
		s1.5-0.3,2.1-0.9c0.5-0.5,0.9-1.3,0.9-2.1s-0.3-1.5-0.9-2.1C79.2,166.2,78.4,165.9,77.6,165.9z"/>
</g>
</svg>
